<svg id="Group_4886" data-name="Group 4886" xmlns="http://www.w3.org/2000/svg" xmlns:xlink="http://www.w3.org/1999/xlink" width="237.939" height="66" viewBox="0 0 237.939 66">
  <defs>
    <clipPath id="clip-path">
      <path id="Path_4844" data-name="Path 4844" d="M0,28.179H237.939v-66H0Z" transform="translate(0 37.821)" fill="none"/>
    </clipPath>
  </defs>
  <g id="Group_4840" data-name="Group 4840" transform="translate(0 0)" clip-path="url(#clip-path)">
    <g id="Group_4822" data-name="Group 4822" transform="translate(-0.001 0.001)">
      <path id="Path_4826" data-name="Path 4826" d="M2.448,0H-3.286V17.618q2.8-.531,5.734-1.017Z" transform="translate(3.286)" fill="#8eacd9"/>
    </g>
    <g id="Group_4823" data-name="Group 4823" transform="translate(32.741 1.005)">
      <path id="Path_4827" data-name="Path 4827" d="M3.434,4.245H8.125V-.594H3.434V-5.7H-2.225v5.1H-4.609V4.245h2.384V6.436q2.8-.217,5.659-.4Z" transform="translate(4.609 5.697)" fill="#8eacd9"/>
    </g>
    <g id="Group_4824" data-name="Group 4824" transform="translate(49.348 5.734)">
      <path id="Path_4828" data-name="Path 4828" d="M3.926,1.939a3.82,3.82,0,0,1,3.2,1.572q2.824-.06,5.678-.089A8.933,8.933,0,0,0,3.926-2.6a9.617,9.617,0,0,0-9.2,6.53q2.9-.133,5.835-.234A3.922,3.922,0,0,1,3.926,1.939" transform="translate(5.27 2.603)" fill="#8eacd9"/>
    </g>
    <g id="Group_4825" data-name="Group 4825" transform="translate(72.472 5.726)">
      <path id="Path_4829" data-name="Path 4829" d="M4.309,2.6a7.706,7.706,0,0,1,1.635-.171h.3V-3.486C2.891-3.635,1.029-1.849-.125.906V-3.115H-5.784V2.513l.309,0q4.929,0,9.785.092" transform="translate(5.784 3.495)" fill="#8eacd9"/>
    </g>
    <g id="Group_4826" data-name="Group 4826" transform="translate(88.036 5.726)">
      <path id="Path_4830" data-name="Path 4830" d="M5.008,2.531h.3V-3.388C1.954-3.537.093-1.751-1.062,1V-3.017H-6.721V2.833q4.413.131,8.738.333a6.631,6.631,0,0,1,2.991-.635" transform="translate(6.721 3.397)" fill="#8eacd9"/>
    </g>
    <g id="Group_4827" data-name="Group 4827" transform="translate(102.998 5.734)">
      <path id="Path_4831" data-name="Path 4831" d="M3.977,1.939A4.067,4.067,0,0,1,8.012,5.3q2.777.257,5.485.546C12.739,1.2,9.687-2.6,3.977-2.6A9.641,9.641,0,0,0-5.338,4.288q2.743.168,5.439.363A4.063,4.063,0,0,1,3.977,1.939" transform="translate(5.338 2.603)" fill="#8eacd9"/>
    </g>
    <g id="Group_4828" data-name="Group 4828" transform="translate(124.626 5.733)">
      <path id="Path_4832" data-name="Path 4832" d="M2.406,4.006V3.933A4.579,4.579,0,0,1,7.245-.685a4.612,4.612,0,0,1,4.877,4.617v.073a4.724,4.724,0,0,1-.229,1.471q2.979.495,5.815,1.031V-5H12.047V-2.4A8.077,8.077,0,0,0,5.606-5.377,8.733,8.733,0,0,0-3.229,3.381q2.864.33,5.638.693c0-.023,0-.045,0-.068" transform="translate(3.229 5.377)" fill="#8eacd9"/>
    </g>
    <g id="Group_4829" data-name="Group 4829" transform="translate(10.803 5.732)">
      <path id="Path_4833" data-name="Path 4833" d="M3.413,2.243a5.041,5.041,0,0,1,1.611-.353,5.052,5.052,0,0,1,1.612.353A3.724,3.724,0,0,1,8.914,5.381Q11.6,5.1,14.365,4.849A9.679,9.679,0,0,0,9.3-1.87,9.426,9.426,0,0,0,5.024-3.011,9.44,9.44,0,0,0,.741-1.87,9.994,9.994,0,0,0-4.581,7.068q2.775-.408,5.652-.775c.01-1.93.609-3.227,2.342-4.05" transform="translate(4.581 3.011)" fill="#8eacd9"/>
    </g>
    <g id="Group_4830" data-name="Group 4830" transform="translate(-0.001 16.603)">
      <path id="Path_4834" data-name="Path 4834" d="M2.448,4.039v-9.46q-2.934.484-5.734,1.016V4.039Z" transform="translate(3.286 5.421)" fill="#0546a5"/>
    </g>
    <g id="Group_4831" data-name="Group 4831" transform="translate(35.123 12.735)">
      <path id="Path_4835" data-name="Path 4835" d="M2.48,5.833A8.34,8.34,0,0,0,6.948,4.68V.137a5.748,5.748,0,0,1-2.79.707C2.89.844,2.332.211,2.332-1.091V-7.829q-2.858.186-5.661.4V-.161c0,4.617,2.347,5.994,5.809,5.994" transform="translate(3.329 7.829)" fill="#0546a5"/>
    </g>
    <g id="Group_4832" data-name="Group 4832" transform="translate(48.679 11.76)">
      <path id="Path_4836" data-name="Path 4836" d="M0,1.894C0,8,4.431,12.207,10.425,12.207a9.976,9.976,0,0,0,8.153-3.724L15.339,5.616A6.534,6.534,0,0,1,10.5,7.665,4.628,4.628,0,0,1,5.623,3.756H19.508c.038-.522.075-1.044.075-1.489a13.646,13.646,0,0,0-.836-4.809q-2.853.029-5.678.089A5.739,5.739,0,0,1,14.074.219H5.548A6.262,6.262,0,0,1,6.5-2.272q-2.937.1-5.834.234A11.316,11.316,0,0,0,0,1.821Z" transform="translate(0 2.542)" fill="#0546a5"/>
    </g>
    <g id="Group_4833" data-name="Group 4833" transform="translate(72.471 11.732)">
      <path id="Path_4837" data-name="Path 4837" d="M2.416,6.118V-1.253c0-4.028,1.654-6.268,4.434-6.867Q2-8.211-2.932-8.212l-.311,0V6.118Z" transform="translate(3.243 8.212)" fill="#0546a5"/>
    </g>
    <g id="Group_4834" data-name="Group 4834" transform="translate(88.036 11.956)">
      <path id="Path_4838" data-name="Path 4838" d="M2.416,6.023V-1.348c0-3.323,1.124-5.429,3.078-6.4q-4.319-.2-8.738-.333V6.023Z" transform="translate(3.243 8.084)" fill="#0546a5"/>
    </g>
    <g id="Group_4835" data-name="Group 4835" transform="translate(102.446 12.626)">
      <path id="Path_4839" data-name="Path 4839" d="M0,1.524C0,7.63,4.431,11.838,10.425,11.838a9.976,9.976,0,0,0,8.153-3.724L15.339,5.247A6.53,6.53,0,0,1,10.5,7.3,4.629,4.629,0,0,1,5.623,3.386H19.51c.037-.522.075-1.044.075-1.489a14.933,14.933,0,0,0-.2-2.386Q16.681-.778,13.9-1.032a7.1,7.1,0,0,1,.173.881H5.548a7.055,7.055,0,0,1,.443-1.534Q3.3-1.878.551-2.046A11.4,11.4,0,0,0,0,1.451Z" transform="translate(0 2.046)" fill="#0546a5"/>
    </g>
    <g id="Group_4836" data-name="Group 4836" transform="translate(124.601 14.492)">
      <path id="Path_4840" data-name="Path 4840" d="M0,.267C0,6.186,4.207,9.575,8.861,9.575a7.8,7.8,0,0,0,6.516-3.241V7.3c0,3.576-1.825,5.436-5.7,5.436A13.021,13.021,0,0,1,2.94,10.915L1.005,15.159a18.941,18.941,0,0,0,8.823,2.085c3.874,0,6.739-.818,8.6-2.68,1.677-1.675,2.532-4.282,2.532-7.856V2.769q-2.832-.539-5.813-1.031A4.694,4.694,0,0,1,10.5,4.882,4.556,4.556,0,0,1,5.663.335Q2.891-.029.026-.358C.017-.173,0,0,0,.193Z" transform="translate(0 0.358)" fill="#0546a5"/>
    </g>
    <g id="Group_4837" data-name="Group 4837" transform="translate(24.298 13.591)">
      <path id="Path_4841" data-name="Path 4841" d="M.028.638V11.609H5.687V1.667A11.881,11.881,0,0,0,5.415-.856Q2.656-.6-.037-.324A7.575,7.575,0,0,1,.028.638" transform="translate(0.037 0.856)" fill="#0546a5"/>
    </g>
    <g id="Group_4838" data-name="Group 4838" transform="translate(10.794 15.036)">
      <path id="Path_4842" data-name="Path 4842" d="M0,.492v9.867H5.659V-.614c0-.016,0-.031,0-.047Q2.784-.292.009.114c0,.1-.009.2-.009.305Z" transform="translate(0 0.661)" fill="#0546a5"/>
    </g>
    <g id="Group_4839" data-name="Group 4839" transform="translate(160.207 57.859)">
      <path id="Path_4843" data-name="Path 4843" d="M0,2.78v-6.4H4.729v.756H.866V-.9H4.483v.75H.866v2.18H4.879V2.78ZM10.055.073A2.4,2.4,0,0,1,9.65,1.7a1.83,1.83,0,0,1-1.361.424,1.921,1.921,0,0,1-.944-.215A1.187,1.187,0,0,1,6.8,1.3,3.544,3.544,0,0,1,6.643.073V-3.618H5.778v3.7a4.206,4.206,0,0,0,.25,1.6,1.775,1.775,0,0,0,.834.9,3.18,3.18,0,0,0,1.5.311,2.907,2.907,0,0,0,1.529-.356,1.9,1.9,0,0,0,.806-.923A4.294,4.294,0,0,0,10.921.078v-3.7h-.866Zm2.876-2.984H15a1.594,1.594,0,0,1,1.063.293.939.939,0,0,1,.337.745,1.026,1.026,0,0,1-.173.574.99.99,0,0,1-.51.384,2.841,2.841,0,0,1-.928.12H12.931Zm0,5.691V-.061h1a2.8,2.8,0,0,1,.482.03A1.321,1.321,0,0,1,14.81.14a1.92,1.92,0,0,1,.44.428q.246.306.625.881l.864,1.331h1.089L16.69,1.038a4.384,4.384,0,0,0-.717-.852,2.274,2.274,0,0,0-.522-.318,2.313,2.313,0,0,0,1.393-.593,1.592,1.592,0,0,0,.448-1.148,1.8,1.8,0,0,0-.27-.965,1.456,1.456,0,0,0-.729-.609,3.968,3.968,0,0,0-1.328-.171h-2.9v6.4Zm6.036-3.1a2.714,2.714,0,0,1,.663-2.061A2.232,2.232,0,0,1,21.211-3a2.19,2.19,0,0,1,1.167.321,2.032,2.032,0,0,1,.787.9,3.222,3.222,0,0,1,.27,1.365,2.685,2.685,0,0,1-.63,1.906,2.105,2.105,0,0,1-1.609.674A2.113,2.113,0,0,1,19.6,1.5a2.52,2.52,0,0,1-.635-1.822m-.892-.01a3.555,3.555,0,0,0,.375,1.6,2.819,2.819,0,0,0,1.1,1.19A3.14,3.14,0,0,0,21.2,2.89a3.309,3.309,0,0,0,1.59-.4,2.72,2.72,0,0,0,1.138-1.162,3.713,3.713,0,0,0,.4-1.742,3.755,3.755,0,0,0-.38-1.717,2.807,2.807,0,0,0-1.108-1.181,3.183,3.183,0,0,0-1.633-.422,3.006,3.006,0,0,0-2.256.9,3.43,3.43,0,0,0-.874,2.5M26-2.862h1.674a3.737,3.737,0,0,1,.806.056.97.97,0,0,1,.548.377,1.142,1.142,0,0,1,.206.688,1.076,1.076,0,0,1-.353.86,1.807,1.807,0,0,1-1.188.305H26ZM26,2.78V.18h1.677a2.584,2.584,0,0,0,1.918-.565,1.938,1.938,0,0,0,.531-1.382,1.924,1.924,0,0,0-.2-.873,1.579,1.579,0,0,0-.524-.618,2.01,2.01,0,0,0-.808-.3,5.951,5.951,0,0,0-.995-.061H25.134v6.4Zm9.814,0V2.026H31.8V-.154h3.618V-.9H31.8V-2.862H35.66v-.756H30.933v6.4Zm2.771-4.5a7.83,7.83,0,0,0,.354-1.222c.1.347.257.789.462,1.326L40.082.154H37.866ZM36.9,2.78,37.617.843h2.735l.763,1.937H42.1l-2.677-6.4h-.934L35.98,2.78Zm6.4,0V-2.248L46.736,2.78h.888v-6.4h-.831V1.4L43.36-3.618h-.888v6.4ZM55.285.073a2.407,2.407,0,0,1-.4,1.628,1.832,1.832,0,0,1-1.361.424,1.912,1.912,0,0,1-.944-.215,1.18,1.18,0,0,1-.544-.609A3.545,3.545,0,0,1,51.874.073V-3.618h-.867v3.7a4.2,4.2,0,0,0,.251,1.6,1.767,1.767,0,0,0,.834.9,3.18,3.18,0,0,0,1.5.311,2.907,2.907,0,0,0,1.529-.356,1.887,1.887,0,0,0,.8-.923A4.25,4.25,0,0,0,56.151.078v-3.7h-.866ZM58.1,2.78V-2.248L61.536,2.78h.886v-6.4h-.829V1.4L58.159-3.618h-.888v6.4Zm5.612,0h.866v-6.4h-.866Zm2.71-3.1a2.714,2.714,0,0,1,.663-2.061A2.232,2.232,0,0,1,68.668-3a2.189,2.189,0,0,1,1.166.321,2.025,2.025,0,0,1,.789.9,3.2,3.2,0,0,1,.27,1.365,2.677,2.677,0,0,1-.63,1.906,2.105,2.105,0,0,1-1.609.674A2.11,2.11,0,0,1,67.059,1.5a2.52,2.52,0,0,1-.635-1.822m-.892-.01a3.532,3.532,0,0,0,.375,1.6,2.825,2.825,0,0,0,1.1,1.19,3.147,3.147,0,0,0,1.651.438,3.314,3.314,0,0,0,1.59-.4,2.716,2.716,0,0,0,1.136-1.162,3.692,3.692,0,0,0,.4-1.742,3.777,3.777,0,0,0-.38-1.717A2.807,2.807,0,0,0,70.3-3.309a3.183,3.183,0,0,0-1.633-.422,3,3,0,0,0-2.256.9,3.43,3.43,0,0,0-.874,2.5M73.41,2.78V-2.248L76.844,2.78h.888v-6.4H76.9V1.4L73.467-3.618h-.886v6.4Z" transform="translate(0 3.731)" fill="#0546a5"/>
    </g>
  </g>
  <path id="Path_4845" data-name="Path 4845" d="M91.831,13.81h77.688V-37.6H91.831Z" transform="translate(68.42 37.983)" fill="#0546a5"/>
  <g id="Group_4841" data-name="Group 4841" transform="translate(195.549 6.049)">
    <path id="Path_4846" data-name="Path 4846" d="M.433,2.122,2.035.954l1.6,1.167L3.026.234,4.652-.935H2.647L2.035-2.848,1.422-.932l-2,0L1.042.234Z" transform="translate(0.581 2.848)" fill="#ffea3d"/>
  </g>
  <g id="Group_4842" data-name="Group 4842" transform="translate(187.262 8.274)">
    <path id="Path_4847" data-name="Path 4847" d="M.435,2.123,2.035.953l1.6,1.169L3.025.235,4.649-.935h-2L2.032-2.849,1.419-.933l-2,0L1.041.235Z" transform="translate(0.584 2.849)" fill="#ffea3d"/>
  </g>
  <g id="Group_4843" data-name="Group 4843" transform="translate(181.203 14.35)">
    <path id="Path_4848" data-name="Path 4848" d="M1.117,0,.5,1.916l-2,0L.127,3.084-.483,4.97,1.117,3.8l1.6,1.167L2.108,3.084,3.733,1.913h-2Z" transform="translate(1.499)" fill="#ffea3d"/>
  </g>
  <g id="Group_4844" data-name="Group 4844" transform="translate(178.977 22.622)">
    <path id="Path_4849" data-name="Path 4849" d="M1.118,1.624l1.6,1.167L2.111.9,3.735-.266h-2L1.118-2.18.509-.262l-2.009,0L.126.9-.483,2.792Z" transform="translate(1.5 2.18)" fill="#ffea3d"/>
  </g>
  <g id="Group_4845" data-name="Group 4845" transform="translate(181.204 30.922)">
    <path id="Path_4850" data-name="Path 4850" d="M1.379.817.763-1.1.152.818l-2,0L-.225,1.986-.835,3.874.763,2.7l1.6,1.171L1.756,1.986,3.381.817Z" transform="translate(1.851 1.096)" fill="#ffea3d"/>
  </g>
  <g id="Group_4846" data-name="Group 4846" transform="translate(187.276 36.997)">
    <path id="Path_4851" data-name="Path 4851" d="M1.379.816.763-1.095.154.818l-2.005,0L-.226,1.983l-.607,1.89,1.6-1.167,1.6,1.167-.609-1.89L3.382.816Z" transform="translate(1.851 1.095)" fill="#ffea3d"/>
  </g>
  <g id="Group_4847" data-name="Group 4847" transform="translate(195.547 39.194)">
    <path id="Path_4852" data-name="Path 4852" d="M1.38.817.764-1.1.155.818l-2.007,0L-.227,1.986-.833,3.874l1.6-1.166,1.6,1.166L1.757,1.986,3.385.817Z" transform="translate(1.852 1.096)" fill="#ffea3d"/>
  </g>
  <g id="Group_4848" data-name="Group 4848" transform="translate(203.821 36.997)">
    <path id="Path_4853" data-name="Path 4853" d="M1.379.816.765-1.095.154.818l-2.005,0L-.226,1.983l-.607,1.89,1.6-1.167,1.6,1.167-.613-1.89L3.384.816Z" transform="translate(1.851 1.095)" fill="#ffea3d"/>
  </g>
  <g id="Group_4849" data-name="Group 4849" transform="translate(209.895 30.922)">
    <path id="Path_4854" data-name="Path 4854" d="M1.38.817.764-1.1.151.818l-2,0L-.227,1.986-.835,3.874.764,2.7l1.6,1.171L1.757,1.986,3.381.817Z" transform="translate(1.852 1.096)" fill="#ffea3d"/>
  </g>
  <g id="Group_4850" data-name="Group 4850" transform="translate(212.095 22.599)">
    <path id="Path_4855" data-name="Path 4855" d="M2.234.818H.229L-.385-1.1-1,.82l-2,0,1.625,1.167-.607,1.888L-.385,2.7l1.6,1.171L.606,1.986Z" transform="translate(2.999 1.098)" fill="#ffea3d"/>
  </g>
  <g id="Group_4851" data-name="Group 4851" transform="translate(209.895 14.325)">
    <path id="Path_4856" data-name="Path 4856" d="M.434,2.122,2.035.953l1.6,1.169L3.026.234,4.65-.934h-2L2.035-2.848,1.422-.932l-2.005,0L1.042.234Z" transform="translate(0.583 2.848)" fill="#ffea3d"/>
  </g>
  <g id="Group_4852" data-name="Group 4852" transform="translate(203.847 8.276)">
    <path id="Path_4857" data-name="Path 4857" d="M1.117,0,.5,1.916l-2-.005L.122,3.084-.485,4.972,1.119,3.8l1.6,1.171L2.108,3.084,3.733,1.911H1.728Z" transform="translate(1.499)" fill="#ffea3d"/>
  </g>
  <g id="Group_4853" data-name="Group 4853" transform="translate(0.028 59.094)">
    <path id="Path_4858" data-name="Path 4858" d="M0,0V5.288H3.8V4.448H.892V3.033H3.426V2.239H.892V.841H3.713V0Z" fill="#0546a5"/>
  </g>
  <g id="Group_4867" data-name="Group 4867" transform="translate(0 0)" clip-path="url(#clip-path)">
    <g id="Group_4854" data-name="Group 4854" transform="translate(4.732 60.359)">
      <path id="Path_4859" data-name="Path 4859" d="M1.22.93V-1.248h.848V2.776H1.22V2.041a1.5,1.5,0,0,1-.564.583,1.512,1.512,0,0,1-.775.211,1.508,1.508,0,0,1-1.1-.415,1.623,1.623,0,0,1-.419-1.2V-1.248h.846V.96q0,1.112.923,1.112A1.108,1.108,0,0,0,.9,1.78,1.081,1.081,0,0,0,1.22.93" transform="translate(1.638 1.248)" fill="#0546a5"/>
    </g>
    <g id="Group_4855" data-name="Group 4855" transform="translate(9.641 60.297)">
      <path id="Path_4860" data-name="Path 4860" d="M.9.365A1.124,1.124,0,0,0-.045.773a1.746,1.746,0,0,0-.318,1.1V3.6h-.846V-.429h.846v.81A1.748,1.748,0,0,1,.194-.24,1.342,1.342,0,0,1,.939-.49L.946.365Z" transform="translate(1.209 0.49)" fill="#0546a5"/>
    </g>
    <g id="Group_4856" data-name="Group 4856" transform="translate(12.278 60.299)">
      <path id="Path_4861" data-name="Path 4861" d="M.516,1.29a1.223,1.223,0,0,0,.911.366,1.227,1.227,0,0,0,.913-.366A1.3,1.3,0,0,0,2.7.34a1.3,1.3,0,0,0-.358-.949,1.227,1.227,0,0,0-.913-.366,1.223,1.223,0,0,0-.911.366A1.3,1.3,0,0,0,.156.34a1.3,1.3,0,0,0,.359.949m2.424.522a2.056,2.056,0,0,1-1.513.6,2.059,2.059,0,0,1-1.513-.6A2,2,0,0,1-.692.34,2,2,0,0,1-.086-1.131a2.065,2.065,0,0,1,1.513-.6,2.063,2.063,0,0,1,1.513.6A2,2,0,0,1,3.545.34a2,2,0,0,1-.606,1.471" transform="translate(0.692 1.731)" fill="#0546a5"/>
    </g>
    <g id="Group_4857" data-name="Group 4857" transform="translate(17.452 60.297)">
      <path id="Path_4862" data-name="Path 4862" d="M.355.888A1.306,1.306,0,0,0,.7,1.83a1.118,1.118,0,0,0,.845.366,1.2,1.2,0,0,0,.869-.363A1.254,1.254,0,0,0,2.792.893a1.338,1.338,0,0,0-.365-.962A1.157,1.157,0,0,0,1.556-.45,1.1,1.1,0,0,0,.7-.068,1.36,1.36,0,0,0,.355.888m1.323-2.08a1.913,1.913,0,0,1,1.384.56A1.989,1.989,0,0,1,3.638.858a2.064,2.064,0,0,1-.572,1.513,1.807,1.807,0,0,1-1.33.581A1.811,1.811,0,0,1,.371,2.288V4.359H-.477v-5.49H.371v.7a1.505,1.505,0,0,1,1.307-.764" transform="translate(0.477 1.192)" fill="#0546a5"/>
    </g>
    <g id="Group_4858" data-name="Group 4858" transform="translate(22.254 60.297)">
      <path id="Path_4863" data-name="Path 4863" d="M.362.759H2.667A.964.964,0,0,0,2.35-.019a1.16,1.16,0,0,0-.782-.272,1.335,1.335,0,0,0-.834.283A.912.912,0,0,0,.362.759m3.153.667H.362a.918.918,0,0,0,.4.707A1.4,1.4,0,0,0,1.61,2.4a1.4,1.4,0,0,0,1.148-.476l.485.53a2.25,2.25,0,0,1-1.694.674A2.019,2.019,0,0,1,.107,2.564,1.985,1.985,0,0,1-.486,1.051,1.96,1.96,0,0,1,.12-.459a2.028,2.028,0,0,1,1.426-.56,2.06,2.06,0,0,1,1.394.5A1.708,1.708,0,0,1,3.515.843Z" transform="translate(0.486 1.019)" fill="#0546a5"/>
    </g>
    <g id="Group_4859" data-name="Group 4859" transform="translate(26.859 60.297)">
      <path id="Path_4864" data-name="Path 4864" d="M1.159,1.1V.765H.208c-.611,0-.916.19-.916.574a.509.509,0,0,0,.227.45,1.112,1.112,0,0,0,.632.155,1.145,1.145,0,0,0,.707-.227.729.729,0,0,0,.3-.613m.848,1.5H1.234V2.065a1.648,1.648,0,0,1-1.337.6,1.533,1.533,0,0,1-1.04-.356,1.194,1.194,0,0,1-.414-.949A1,1,0,0,1-1.116.47,2.1,2.1,0,0,1,.07.175h1.1V.023c0-.534-.3-.8-.892-.8A2.1,2.1,0,0,0-.889-.371L-1.268-.9A2.612,2.612,0,0,1,.395-1.483a1.809,1.809,0,0,1,1.162.359A1.363,1.363,0,0,1,2.007.007Z" transform="translate(1.556 1.483)" fill="#0546a5"/>
    </g>
    <g id="Group_4860" data-name="Group 4860" transform="translate(31.579 60.298)">
      <path id="Path_4865" data-name="Path 4865" d="M.362.814V2.991H-.486V-1.031H.362V-.3A1.5,1.5,0,0,1,.926-.881,1.512,1.512,0,0,1,1.7-1.092a1.508,1.508,0,0,1,1.1.415,1.623,1.623,0,0,1,.419,1.2V2.991H2.374V.784q0-1.112-.923-1.112a1.1,1.1,0,0,0-.763.291,1.076,1.076,0,0,0-.326.85" transform="translate(0.486 1.092)" fill="#0546a5"/>
    </g>
    <g id="Group_4861" data-name="Group 4861" transform="translate(38.613 59.095)">
      <path id="Path_4866" data-name="Path 4866" d="M1.295,1.053A.943.943,0,0,0,1.567.3a.807.807,0,0,0-.281-.712A1.865,1.865,0,0,0,.29-.6H-.846v1.89H.265a1.646,1.646,0,0,0,1.03-.234M2.482.3A1.535,1.535,0,0,1,1.34,1.953l1.386,1.92H1.592L.326,2.1H-.846V3.873h-.892V-1.413H.227A2.852,2.852,0,0,1,1.96-1,1.557,1.557,0,0,1,2.482.3" transform="translate(1.738 1.413)" fill="#0546a5"/>
    </g>
    <g id="Group_4862" data-name="Group 4862" transform="translate(43.718 60.297)">
      <path id="Path_4867" data-name="Path 4867" d="M.361.759H2.668a.969.969,0,0,0-.318-.778,1.164,1.164,0,0,0-.784-.272,1.339,1.339,0,0,0-.834.283A.916.916,0,0,0,.361.759m3.153.667H.361a.915.915,0,0,0,.4.707,1.4,1.4,0,0,0,.846.267,1.407,1.407,0,0,0,1.15-.476l.483.53a2.25,2.25,0,0,1-1.694.674,2.015,2.015,0,0,1-1.44-.564A1.985,1.985,0,0,1-.485,1.051a1.959,1.959,0,0,1,.6-1.509,2.028,2.028,0,0,1,1.426-.56,2.068,2.068,0,0,1,1.4.5A1.712,1.712,0,0,1,3.515.843Z" transform="translate(0.485 1.019)" fill="#0546a5"/>
    </g>
    <g id="Group_4863" data-name="Group 4863" transform="translate(48.377 60.297)">
      <path id="Path_4868" data-name="Path 4868" d="M.355.819a1.276,1.276,0,0,0,.307.855,1.028,1.028,0,0,0,.824.359,1.092,1.092,0,0,0,.839-.347A1.232,1.232,0,0,0,2.646.819a1.268,1.268,0,0,0-.325-.878,1.082,1.082,0,0,0-.839-.359,1.007,1.007,0,0,0-.82.372A1.317,1.317,0,0,0,.355.819M3.494-1.038V2.471a2.072,2.072,0,0,1-.579,1.6A2.105,2.105,0,0,1,1.43,4.6,2.618,2.618,0,0,1-.212,4.037l.4-.644a1.961,1.961,0,0,0,1.19.448,1.4,1.4,0,0,0,.955-.311,1.255,1.255,0,0,0,.351-.991V2.025a1.432,1.432,0,0,1-.541.567,1.5,1.5,0,0,1-.789.213,1.7,1.7,0,0,1-1.316-.56A1.976,1.976,0,0,1-.476.854,1.978,1.978,0,0,1,.039-.539,1.7,1.7,0,0,1,1.351-1.1a1.551,1.551,0,0,1,1.295.658v-.6Z" transform="translate(0.476 1.099)" fill="#0546a5"/>
    </g>
    <path id="Path_4869" data-name="Path 4869" d="M31.578,1.523H30.73V-2.5h.848ZM30.784-3.3a.522.522,0,0,1-.159-.379.522.522,0,0,1,.159-.379.516.516,0,0,1,.379-.159.516.516,0,0,1,.379.159.522.522,0,0,1,.159.379.522.522,0,0,1-.159.379.516.516,0,0,1-.379.159.516.516,0,0,1-.379-.159" transform="translate(22.818 62.858)" fill="#0546a5"/>
    <g id="Group_4864" data-name="Group 4864" transform="translate(55.332 60.299)">
      <path id="Path_4870" data-name="Path 4870" d="M.516,1.29a1.22,1.22,0,0,0,.911.366,1.22,1.22,0,0,0,.911-.366A1.292,1.292,0,0,0,2.7.34a1.3,1.3,0,0,0-.359-.949,1.22,1.22,0,0,0-.911-.366,1.22,1.22,0,0,0-.911.366A1.3,1.3,0,0,0,.156.34a1.3,1.3,0,0,0,.359.949m2.424.522a2.056,2.056,0,0,1-1.513.6,2.059,2.059,0,0,1-1.513-.6A2,2,0,0,1-.692.34,2,2,0,0,1-.086-1.131a2.065,2.065,0,0,1,1.513-.6,2.063,2.063,0,0,1,1.513.6A2,2,0,0,1,3.545.34a2,2,0,0,1-.606,1.471" transform="translate(0.692 1.731)" fill="#0546a5"/>
    </g>
    <g id="Group_4865" data-name="Group 4865" transform="translate(60.507 60.298)">
      <path id="Path_4871" data-name="Path 4871" d="M.361.814V2.991H-.485V-1.031H.361V-.3A1.523,1.523,0,0,1,1.7-1.092a1.5,1.5,0,0,1,1.1.415A1.623,1.623,0,0,1,3.22.526V2.991H2.373V.784q0-1.112-.923-1.112a1.1,1.1,0,0,0-.763.291,1.076,1.076,0,0,0-.326.85" transform="translate(0.485 1.092)" fill="#0546a5"/>
    </g>
    <g id="Group_4866" data-name="Group 4866" transform="translate(65.066 60.297)">
      <path id="Path_4872" data-name="Path 4872" d="M1.159,1.1V.765H.208c-.613,0-.916.19-.916.574a.509.509,0,0,0,.227.45,1.1,1.1,0,0,0,.63.155,1.138,1.138,0,0,0,.707-.227.726.726,0,0,0,.3-.613m.846,1.5H1.234V2.065a1.652,1.652,0,0,1-1.338.6,1.528,1.528,0,0,1-1.038-.356,1.189,1.189,0,0,1-.414-.949A1,1,0,0,1-1.118.47,2.1,2.1,0,0,1,.07.175h1.1V.023q0-.8-.892-.8A2.109,2.109,0,0,0-.891-.371L-1.268-.9A2.608,2.608,0,0,1,.395-1.483a1.812,1.812,0,0,1,1.162.359A1.368,1.368,0,0,1,2.006.007Z" transform="translate(1.556 1.483)" fill="#0546a5"/>
    </g>
  </g>
  <path id="Path_4874" data-name="Path 4874" d="M39.991,1.469h.846V-4.143h-.846Z" transform="translate(29.796 62.913)" fill="#0546a5"/>
  <g id="Group_4870" data-name="Group 4870" transform="translate(0 0)" clip-path="url(#clip-path)">
    <g id="Group_4868" data-name="Group 4868" transform="translate(74.005 59.095)">
      <path id="Path_4875" data-name="Path 4875" d="M1.65,1.127Q1.65-.689-.43-.688h-.892V2.935h.989a2.123,2.123,0,0,0,1.471-.459A1.716,1.716,0,0,0,1.65,1.127M1.786-.82A2.463,2.463,0,0,1,2.551,1.1a2.593,2.593,0,0,1-.742,1.951,3.151,3.151,0,0,1-2.269.719H-2.215V-1.513H-.4A3.144,3.144,0,0,1,1.786-.82" transform="translate(2.215 1.513)" fill="#0546a5"/>
    </g>
    <g id="Group_4869" data-name="Group 4869" transform="translate(79.52 60.297)">
      <path id="Path_4876" data-name="Path 4876" d="M.361.759H2.668a.969.969,0,0,0-.318-.778,1.161,1.161,0,0,0-.784-.272,1.339,1.339,0,0,0-.834.283A.916.916,0,0,0,.361.759m3.153.667H.361a.915.915,0,0,0,.4.707,1.4,1.4,0,0,0,.846.267,1.407,1.407,0,0,0,1.15-.476l.483.53a2.25,2.25,0,0,1-1.694.674,2.015,2.015,0,0,1-1.44-.564A1.985,1.985,0,0,1-.485,1.051a1.959,1.959,0,0,1,.6-1.509,2.031,2.031,0,0,1,1.426-.56,2.068,2.068,0,0,1,1.4.5A1.712,1.712,0,0,1,3.515.843Z" transform="translate(0.485 1.019)" fill="#0546a5"/>
    </g>
  </g>
  <g id="Group_4871" data-name="Group 4871" transform="translate(83.83 60.359)">
    <path id="Path_4878" data-name="Path 4878" d="M1.421,0,.194,3.04-1.031,0h-.876L-.289,4.024H.677L2.3,0Z" transform="translate(1.907)" fill="#0546a5"/>
  </g>
  <g id="Group_4873" data-name="Group 4873" transform="translate(0 0)" clip-path="url(#clip-path)">
    <g id="Group_4872" data-name="Group 4872" transform="translate(88.427 60.297)">
      <path id="Path_4879" data-name="Path 4879" d="M.362.759H2.667A.964.964,0,0,0,2.35-.019a1.16,1.16,0,0,0-.782-.272,1.339,1.339,0,0,0-.834.283A.916.916,0,0,0,.362.759m3.153.667H.362a.918.918,0,0,0,.4.707A1.4,1.4,0,0,0,1.61,2.4a1.4,1.4,0,0,0,1.148-.476l.485.53a2.25,2.25,0,0,1-1.694.674A2.019,2.019,0,0,1,.107,2.564,1.991,1.991,0,0,1-.486,1.051,1.96,1.96,0,0,1,.12-.459a2.031,2.031,0,0,1,1.426-.56,2.06,2.06,0,0,1,1.394.5A1.708,1.708,0,0,1,3.515.843Z" transform="translate(0.486 1.019)" fill="#0546a5"/>
    </g>
  </g>
  <path id="Path_4881" data-name="Path 4881" d="M53.486,1.469h.846V-4.143h-.846Z" transform="translate(39.85 62.913)" fill="#0546a5"/>
  <g id="Group_4880" data-name="Group 4880" transform="translate(0 0)" clip-path="url(#clip-path)">
    <g id="Group_4874" data-name="Group 4874" transform="translate(95.12 60.299)">
      <path id="Path_4882" data-name="Path 4882" d="M.516,1.29a1.22,1.22,0,0,0,.911.366,1.22,1.22,0,0,0,.911-.366A1.3,1.3,0,0,0,2.7.34a1.3,1.3,0,0,0-.359-.949,1.22,1.22,0,0,0-.911-.366,1.22,1.22,0,0,0-.911.366A1.3,1.3,0,0,0,.156.34a1.3,1.3,0,0,0,.359.949m2.424.522a2.056,2.056,0,0,1-1.513.6,2.056,2.056,0,0,1-1.513-.6A2,2,0,0,1-.692.34,2,2,0,0,1-.086-1.131a2.063,2.063,0,0,1,1.513-.6,2.063,2.063,0,0,1,1.513.6A2,2,0,0,1,3.545.34a2,2,0,0,1-.606,1.471" transform="translate(0.692 1.731)" fill="#0546a5"/>
    </g>
    <g id="Group_4875" data-name="Group 4875" transform="translate(100.294 60.297)">
      <path id="Path_4883" data-name="Path 4883" d="M.355.888A1.313,1.313,0,0,0,.7,1.83,1.125,1.125,0,0,0,1.55,2.2a1.21,1.21,0,0,0,.871-.363,1.265,1.265,0,0,0,.37-.941,1.336,1.336,0,0,0-.363-.962A1.157,1.157,0,0,0,1.557-.45,1.11,1.11,0,0,0,.7-.068,1.368,1.368,0,0,0,.355.888m1.325-2.08a1.913,1.913,0,0,1,1.384.56A1.988,1.988,0,0,1,3.637.858a2.07,2.07,0,0,1-.571,1.513,1.808,1.808,0,0,1-1.331.581A1.814,1.814,0,0,1,.37,2.288V4.359H-.476v-5.49H.37v.7a1.506,1.506,0,0,1,1.309-.764" transform="translate(0.476 1.192)" fill="#0546a5"/>
    </g>
    <g id="Group_4876" data-name="Group 4876" transform="translate(105.351 60.298)">
      <path id="Path_4884" data-name="Path 4884" d="M.362.814V2.991H-.486V-1.031H.362V-.3A1.348,1.348,0,0,1,.91-.881,1.573,1.573,0,0,1,1.7-1.092,1.277,1.277,0,0,1,2.994-.3a1.806,1.806,0,0,1,1.49-.787,1.5,1.5,0,0,1,1.1.415A1.623,1.623,0,0,1,6,.526V2.991H5.158V.784c0-.742-.309-1.112-.923-1.112a1.12,1.12,0,0,0-.754.276,1.048,1.048,0,0,0-.335.8V2.991H2.3V.784a1.4,1.4,0,0,0-.206-.845.753.753,0,0,0-.642-.267,1.1,1.1,0,0,0-.764.291,1.081,1.081,0,0,0-.325.85" transform="translate(0.486 1.092)" fill="#0546a5"/>
    </g>
    <g id="Group_4877" data-name="Group 4877" transform="translate(112.74 60.297)">
      <path id="Path_4885" data-name="Path 4885" d="M.362.759H2.667A.964.964,0,0,0,2.35-.019a1.158,1.158,0,0,0-.78-.272,1.34,1.34,0,0,0-.836.283A.916.916,0,0,0,.362.759m3.153.667H.362a.915.915,0,0,0,.4.707A1.4,1.4,0,0,0,1.61,2.4a1.407,1.407,0,0,0,1.15-.476l.483.53a2.25,2.25,0,0,1-1.694.674,2.015,2.015,0,0,1-1.44-.564,1.986,1.986,0,0,1-.6-1.513A1.955,1.955,0,0,1,.121-.459a2.024,2.024,0,0,1,1.424-.56,2.068,2.068,0,0,1,1.4.5A1.707,1.707,0,0,1,3.515.843Z" transform="translate(0.486 1.019)" fill="#0546a5"/>
    </g>
    <g id="Group_4878" data-name="Group 4878" transform="translate(117.649 60.298)">
      <path id="Path_4886" data-name="Path 4886" d="M.362.814V2.991H-.486V-1.031H.362V-.3A1.5,1.5,0,0,1,.926-.881,1.512,1.512,0,0,1,1.7-1.092a1.5,1.5,0,0,1,1.1.415,1.616,1.616,0,0,1,.421,1.2V2.991H2.374V.784q0-1.112-.923-1.112a1.1,1.1,0,0,0-.764.291,1.075,1.075,0,0,0-.325.85" transform="translate(0.486 1.092)" fill="#0546a5"/>
    </g>
    <g id="Group_4879" data-name="Group 4879" transform="translate(122.15 59.095)">
      <path id="Path_4887" data-name="Path 4887" d="M.578.83V2.873a.656.656,0,0,0,.152.455.53.53,0,0,0,.422.171.719.719,0,0,0,.522-.264l.347.6a1.438,1.438,0,0,1-.986.4,1.263,1.263,0,0,1-.921-.373A1.343,1.343,0,0,1-.27,2.851V.83H-.776V.149H-.27V-1.114H.578V.149H1.636V.83Z" transform="translate(0.776 1.114)" fill="#0546a5"/>
    </g>
  </g>
  <g id="Group_4881" data-name="Group 4881" transform="translate(127.769 59.096)">
    <path id="Path_4889" data-name="Path 4889" d="M0,0V5.286H.892V3.108H3.237V2.284H.892V.832H3.515L3.523,0Z" fill="#0546a5"/>
  </g>
  <g id="Group_4885" data-name="Group 4885" transform="translate(0 0)" clip-path="url(#clip-path)">
    <g id="Group_4882" data-name="Group 4882" transform="translate(132.057 60.359)">
      <path id="Path_4890" data-name="Path 4890" d="M1.22.93V-1.248h.846V2.776H1.22V2.041a1.52,1.52,0,0,1-.564.583,1.512,1.512,0,0,1-.775.211,1.505,1.505,0,0,1-1.1-.415,1.623,1.623,0,0,1-.419-1.2V-1.248h.846V.96q0,1.112.923,1.112A1.1,1.1,0,0,0,.894,1.78,1.076,1.076,0,0,0,1.22.93" transform="translate(1.638 1.248)" fill="#0546a5"/>
    </g>
    <g id="Group_4883" data-name="Group 4883" transform="translate(136.964 60.298)">
      <path id="Path_4891" data-name="Path 4891" d="M.362.814V2.991H-.486V-1.031H.362V-.3A1.523,1.523,0,0,1,1.7-1.092a1.5,1.5,0,0,1,1.1.415,1.623,1.623,0,0,1,.419,1.2V2.991H2.374V.784q0-1.112-.923-1.112a1.1,1.1,0,0,0-.764.291,1.081,1.081,0,0,0-.325.85" transform="translate(0.486 1.092)" fill="#0546a5"/>
    </g>
    <g id="Group_4884" data-name="Group 4884" transform="translate(141.57 58.77)">
      <path id="Path_4892" data-name="Path 4892" d="M.362,1.545a1.253,1.253,0,0,0,.37.941,1.2,1.2,0,0,0,.871.363,1.129,1.129,0,0,0,.846-.365A1.319,1.319,0,0,0,2.8,1.54,1.381,1.381,0,0,0,2.449.58,1.111,1.111,0,0,0,1.594.195,1.156,1.156,0,0,0,.725.58a1.354,1.354,0,0,0-.363.965M.081,3.023A2.068,2.068,0,0,1-.486,1.51,1.973,1.973,0,0,1,.1.013a1.923,1.923,0,0,1,1.386-.56,1.528,1.528,0,0,1,1.3.681V-2.074h.848V3.538H2.781V2.933A1.564,1.564,0,0,1,1.414,3.6,1.81,1.81,0,0,1,.081,3.023" transform="translate(0.486 2.074)" fill="#0546a5"/>
    </g>
    <text id="Greece-Italy" transform="translate(0.028 47.85)" fill="#0546a5" font-size="20" font-family="Montserrat-Regular, Montserrat"><tspan x="0" y="0">Greece-Italy</tspan></text>
  </g>
</svg>
