<svg xmlns="http://www.w3.org/2000/svg" xmlns:xlink="http://www.w3.org/1999/xlink" width="233.457" height="105.749" viewBox="0 0 233.457 105.749">
  <defs>
    <clipPath id="clip-path">
      <path id="Path_5" data-name="Path 5" d="M0,44.7H233.457V-61.052H0Z" transform="translate(0 61.052)" fill="none"/>
    </clipPath>
  </defs>
  <g id="Group_21" data-name="Group 21" transform="translate(0 61.052)">
    <g id="Group_5" data-name="Group 5" transform="translate(0 -61.052)" clip-path="url(#clip-path)">
      <g id="Group_1" data-name="Group 1" transform="translate(20.672 0.028)">
        <path id="Path_1" data-name="Path 1" d="M9.491,0A20.342,20.342,0,0,1,24.476,33.8,20.293,20.293,0,0,1,9.422,40.683c-.068,0-.135,0-.2,0A15.427,15.427,0,0,1-5.1,30.962V59.421h1.843v1.07h-9.7v-1.07h1.839V1.073h-1.839V0H9.422ZM9.41,39.611c3.747-.048,5.938-2.07,8.591-4.72s5.48-5.631,5.538-9.376V15.164c-.057-3.74-2.2-5.51-4.85-8.156S12,1.123,8.256,1.073H-5.1v24.4c.045,3.776,2.046,6.759,4.743,9.426s5.789,4.713,9.575,4.713c.064,0,.192,0,.192,0" transform="translate(12.964 0.001)" fill="#2b2e34"/>
      </g>
      <g id="Group_2" data-name="Group 2" transform="translate(68.351 0)">
        <path id="Path_2" data-name="Path 2" d="M.777,25.116s.244-5.137.488-10.815c.094-2.177.215-5.158.315-7.711.407-10.322-.416-20.957-.554-26.964L.777-33.232H-1.062v-1.074H31.559v10.379h-1.07v-.4a8.923,8.923,0,0,0-8.394-8.908H6.8V-4.6h9.589A5.517,5.517,0,0,0,21.575-10.1v-.4h1.072V2.382H21.575V1.987a5.519,5.519,0,0,0-5.184-5.51H6.8V25.116H22.095A8.928,8.928,0,0,0,30.488,16.2v-.395h1.07V26.188H-1.062V25.116Z" transform="translate(1.062 34.306)" fill="#2b2e34"/>
      </g>
      <g id="Group_3" data-name="Group 3" transform="translate(104.738 0.003)">
        <path id="Path_3" data-name="Path 3" d="M.993,17.729a30.066,30.066,0,0,1-2.349-11.7c0-4.057,1.826-7.576,3.383-11.286,1.5-3.58,2.624-7.221,5.37-9.994a30.144,30.144,0,0,1,9.511-6.5,30.047,30.047,0,0,1,11.661-2.465h.646a30.055,30.055,0,0,1,11.662,2.465,30.136,30.136,0,0,1,9.509,6.5A30.133,30.133,0,0,1,59.136,6.027a30.063,30.063,0,0,1-2.345,11.7c-1.505,3.582-1.767,4.058-4.512,6.831s-7.836,7.7-11.4,9.244A30.019,30.019,0,0,1,29.219,36.27h-.65a30.018,30.018,0,0,1-11.662-2.465A30.342,30.342,0,0,1,.993,17.729M28.575-23.147c-6.385.1-12.379,3.163-16.881,8.633A32.256,32.256,0,0,0,4.67,6.027a32.252,32.252,0,0,0,7.024,20.539c4.5,5.468,10.5,8.534,16.883,8.633h.632c6.381-.1,12.378-3.165,16.881-8.633A32.263,32.263,0,0,0,53.115,6.027,32.268,32.268,0,0,0,46.09-14.514c-4.5-5.47-10.5-8.536-16.885-8.633Z" transform="translate(1.356 24.217)" fill="#2b2e34"/>
      </g>
      <g id="Group_4" data-name="Group 4" transform="translate(170.4 0.002)">
        <path id="Path_4" data-name="Path 4" d="M0,0H7.646s7.162,23.193,21.663,39.785C34.3,45.5,39.476,57.871,39.476,57.871V9.977A8.932,8.932,0,0,0,31.067,1.07l-.385-.021L30.715,0H42.388V1.072H40.549v59.42h-3.5l-4.928-7.883s-10.3-18.894-16.306-24.367c-4.162-3.8-6.809-7.62-7.982-11.543C5.865,10.112,2.913,8.188,2.913,8.188V50.51a8.927,8.927,0,0,0,8.409,8.912l.383.023-.029,1.048H0v-1.07H1.843V1.072H0Z" fill="#2b2e34"/>
      </g>
    </g>
    <g id="Group_6" data-name="Group 6" transform="translate(24.363 -26.46)">
      <path id="Path_6" data-name="Path 6" d="M15.067,10.906-20.58-13.385l.007-1.512L17.1,10.906Z" transform="translate(20.58 14.897)" fill="#2b2e34"/>
    </g>
    <g id="Group_17" data-name="Group 17" transform="translate(0 -61.052)" clip-path="url(#clip-path)">
      <g id="Group_7" data-name="Group 7" transform="translate(0.001 90.087)">
        <path id="Path_7" data-name="Path 7" d="M1.828,4.691A3.871,3.871,0,0,1-.614,3.946a4.384,4.384,0,0,1-1.419-1.99A8.07,8.07,0,0,1-2.5-.885,6.8,6.8,0,0,1-1.421-4.869,3.691,3.691,0,0,1,1.828-6.407,4.5,4.5,0,0,1,3.7-6.062a3.353,3.353,0,0,1,1.221.9,3.678,3.678,0,0,1,.676,1.2l.028-.14V-6.407H7.376V4.424H5.918L5.653,2.364,5.6,2.326A4.605,4.605,0,0,1,4.908,3.4,3.6,3.6,0,0,1,3.7,4.318a4.247,4.247,0,0,1-1.872.372m.665-1.516a2.644,2.644,0,0,0,2.376-1.1A5.26,5.26,0,0,0,5.6-.861a4.835,4.835,0,0,0-.755-2.958,2.761,2.761,0,0,0-2.349-1A2.808,2.808,0,0,0-.015-3.7,4.9,4.9,0,0,0-.774-.885,5.105,5.105,0,0,0,0,2.034,2.781,2.781,0,0,0,2.493,3.175" transform="translate(2.497 6.407)" fill="#2b2e34"/>
      </g>
      <g id="Group_8" data-name="Group 8" transform="translate(28.567 89.794)">
        <path id="Path_8" data-name="Path 8" d="M1.906,4.814A4.535,4.535,0,0,1-.628,4.161,4.435,4.435,0,0,1-2.116,2.635,3.291,3.291,0,0,1-2.6,1.07H-.958c0,.017.014.151.038.4a2.543,2.543,0,0,0,.279.849,2.132,2.132,0,0,0,.823.838,3.3,3.3,0,0,0,1.7.359,4.6,4.6,0,0,0,2.056-.426,1.344,1.344,0,0,0,.835-1.327A1.424,1.424,0,0,0,4.257.578,3.7,3.7,0,0,0,2.916-.058Q2.1-.284,1.189-.5A11.221,11.221,0,0,1-.522-1.042a3.249,3.249,0,0,1-1.315-.942,2.592,2.592,0,0,1-.5-1.7,2.413,2.413,0,0,1,1.2-2.11,5.472,5.472,0,0,1,3.052-.783,7.053,7.053,0,0,1,2.1.331A3.7,3.7,0,0,1,5.757-5.1a3.221,3.221,0,0,1,.637,2.271H4.8a1.906,1.906,0,0,0-.45-1.514,2.521,2.521,0,0,0-1.209-.676A5.486,5.486,0,0,0,1.854-5.2a3.67,3.67,0,0,0-1.871.426,1.318,1.318,0,0,0-.731,1.2A1.322,1.322,0,0,0-.231-2.447a4.057,4.057,0,0,0,1.329.61c.54.149,1.115.293,1.727.424a10.056,10.056,0,0,1,1.737.544A3.371,3.371,0,0,1,5.9.113a2.7,2.7,0,0,1,.516,1.751,2.365,2.365,0,0,1-1.3,2.245,6.693,6.693,0,0,1-3.213.7" transform="translate(2.604 6.576)" fill="#2b2e34"/>
      </g>
      <g id="Group_9" data-name="Group 9" transform="translate(45.076 90.111)">
        <path id="Path_9" data-name="Path 9" d="M2.413,4.68A3.974,3.974,0,0,1,.648,4.32,4.022,4.022,0,0,1-.533,3.483a4.261,4.261,0,0,1-.679-.9c-.149-.282-.244-.469-.277-.558h-.054v6.85H-3.3V-6.393h1.462l.291,2.709h.054c.033-.088.125-.275.267-.558A4.584,4.584,0,0,1-.575-5.17,3.692,3.692,0,0,1,.594-6.034a4.109,4.109,0,0,1,1.819-.359,4.547,4.547,0,0,1,2.615.717A4.494,4.494,0,0,1,6.62-3.7,7.213,7.213,0,0,1,7.166-.817,6.183,6.183,0,0,1,5.943,3.141a4.246,4.246,0,0,1-3.53,1.54M2.068,3.165a3.19,3.19,0,0,0,2-.584,3.264,3.264,0,0,0,1.089-1.5A5.625,5.625,0,0,0,5.493-.843,5.005,5.005,0,0,0,5.12-2.782,3.392,3.392,0,0,0,3.967-4.256a3.426,3.426,0,0,0-2.058-.57A3.1,3.1,0,0,0-.561-3.75,4.29,4.29,0,0,0-1.489-.843,4.176,4.176,0,0,0-.506,2.089,3.318,3.318,0,0,0,2.068,3.165" transform="translate(3.296 6.393)" fill="#2b2e34"/>
      </g>
      <g id="Group_10" data-name="Group 10" transform="translate(62.148 90.087)">
        <path id="Path_10" data-name="Path 10" d="M1.83,4.691A3.876,3.876,0,0,1-.614,3.946a4.426,4.426,0,0,1-1.42-1.99A8.149,8.149,0,0,1-2.5-.885,6.809,6.809,0,0,1-1.423-4.869,3.7,3.7,0,0,1,1.83-6.407,4.5,4.5,0,0,1,3.7-6.062a3.353,3.353,0,0,1,1.221.9,3.652,3.652,0,0,1,.677,1.2l.028-.14V-6.407H7.377V4.424H5.917L5.651,2.364,5.6,2.326A4.721,4.721,0,0,1,4.909,3.4,3.629,3.629,0,0,1,3.7,4.318a4.25,4.25,0,0,1-1.871.372m.663-1.516a2.641,2.641,0,0,0,2.375-1.1A5.231,5.231,0,0,0,5.6-.861a4.846,4.846,0,0,0-.757-2.958,2.761,2.761,0,0,0-2.349-1A2.811,2.811,0,0,0-.017-3.7,4.921,4.921,0,0,0-.772-.885,5.1,5.1,0,0,0,0,2.034a2.788,2.788,0,0,0,2.5,1.141" transform="translate(2.499 6.407)" fill="#2b2e34"/>
      </g>
      <g id="Group_11" data-name="Group 11" transform="translate(79.004 90.087)">
        <path id="Path_11" data-name="Path 11" d="M2.234,4.691A5.66,5.66,0,0,1-.474,4.051,4.613,4.613,0,0,1-2.358,2.193,5.871,5.871,0,0,1-3.051-.753,6.706,6.706,0,0,1-2.32-3.726,4.908,4.908,0,0,1-.449-5.7a5.293,5.293,0,0,1,2.735-.7,5.527,5.527,0,0,1,2.5.53,4.506,4.506,0,0,1,1.7,1.434,4.538,4.538,0,0,1,.8,1.99H5.712A2.93,2.93,0,0,0,4.555-4.259a3.717,3.717,0,0,0-2.215-.636A3.4,3.4,0,0,0-.354-3.766,4.36,4.36,0,0,0-1.378-.833a4.176,4.176,0,0,0,.97,2.908A3.473,3.473,0,0,0,2.313,3.151a3.811,3.811,0,0,0,2.2-.637A2.893,2.893,0,0,0,5.712.681H7.276A4.483,4.483,0,0,1,6.467,2.7,4.686,4.686,0,0,1,4.742,4.145a5.488,5.488,0,0,1-2.508.546" transform="translate(3.051 6.407)" fill="#2b2e34"/>
      </g>
      <g id="Group_12" data-name="Group 12" transform="translate(96.367 90.086)">
        <path id="Path_12" data-name="Path 12" d="M2.188,4.691A4.985,4.985,0,0,1-.744,3.879a4.817,4.817,0,0,1-1.7-2.1A6.781,6.781,0,0,1-2.989-.886a6.38,6.38,0,0,1,.6-2.775,4.772,4.772,0,0,1,1.751-2,5.018,5.018,0,0,1,2.775-.743A4.763,4.763,0,0,1,5.588-5.067a5.134,5.134,0,0,1,1.484,3.6A3.335,3.335,0,0,1,7.1-.886H-1.342A4.569,4.569,0,0,0-.427,2.156,3.222,3.222,0,0,0,2.164,3.229,3.569,3.569,0,0,0,4.3,2.592,2.688,2.688,0,0,0,5.4.867H7.073A4.358,4.358,0,0,1,5.507,3.6,4.993,4.993,0,0,1,2.188,4.691M-1.288-1.735H5.349a3.737,3.737,0,0,0-.307-1.329A3.261,3.261,0,0,0,4.035-4.4a2.991,2.991,0,0,0-1.926-.57A3.241,3.241,0,0,0,.276-4.5,3.115,3.115,0,0,0-.81-3.275a4.817,4.817,0,0,0-.478,1.54" transform="translate(2.989 6.408)" fill="#2b2e34"/>
      </g>
      <g id="Group_13" data-name="Group 13" transform="translate(124.852 85.971)">
        <path id="Path_13" data-name="Path 13" d="M.707,6.317v-9.53H-.966V-4.488H.707V-6.876a1.933,1.933,0,0,1,.386-1.342,1.828,1.828,0,0,1,1.365-.411H5.671v1.406H2.434v2.735H5.486v1.275H2.434v9.53Z" transform="translate(0.966 8.629)" fill="#2b2e34"/>
      </g>
      <g id="Group_14" data-name="Group 14" transform="translate(137.649 90.113)">
        <path id="Path_14" data-name="Path 14" d="M2.188,4.68A4.766,4.766,0,0,1-1.7,3.126,6.014,6.014,0,0,1-2.989-.844a5.862,5.862,0,0,1,1.289-4A4.807,4.807,0,0,1,2.188-6.392,4.832,4.832,0,0,1,6.049-4.88,5.939,5.939,0,0,1,7.364-.844a6.821,6.821,0,0,1-.556,2.815,4.468,4.468,0,0,1-1.7,1.978,5.319,5.319,0,0,1-2.919.731m0-1.488A3.327,3.327,0,0,0,4.326,2.58,3.222,3.222,0,0,0,5.388,1.028,6.234,6.234,0,0,0,5.693-.9a6.382,6.382,0,0,0-.3-1.94A3.151,3.151,0,0,0,4.326-4.388a3.378,3.378,0,0,0-2.137-.6,3.378,3.378,0,0,0-2.137.6A3.151,3.151,0,0,0-1.011-2.836a6.382,6.382,0,0,0-.3,1.94,6.234,6.234,0,0,0,.3,1.924A3.222,3.222,0,0,0,.051,2.58a3.327,3.327,0,0,0,2.137.611" transform="translate(2.989 6.392)" fill="#2b2e34"/>
      </g>
      <g id="Group_15" data-name="Group 15" transform="translate(155.647 90.113)">
        <path id="Path_15" data-name="Path 15" d="M0,4.567v-10.8H1.542L1.727-3.4a3.717,3.717,0,0,1,.637-1.38A3.339,3.339,0,0,1,3.677-5.84a4.831,4.831,0,0,1,2.085-.4h.506v1.885H5.735a5.288,5.288,0,0,0-2.56.492A2.488,2.488,0,0,0,2.006-2.495,6.1,6.1,0,0,0,1.7-.477V4.567Z" transform="translate(0 6.238)" fill="#2b2e34"/>
      </g>
      <g id="Group_16" data-name="Group 16" transform="translate(179.993 90.087)">
        <path id="Path_16" data-name="Path 16" d="M2.232,4.691A5.665,5.665,0,0,1-.475,4.051,4.623,4.623,0,0,1-2.36,2.193,5.888,5.888,0,0,1-3.049-.753a6.682,6.682,0,0,1,.731-2.972A4.885,4.885,0,0,1-.447-5.7a5.278,5.278,0,0,1,2.733-.7,5.522,5.522,0,0,1,2.5.53,4.525,4.525,0,0,1,1.7,1.434,4.58,4.58,0,0,1,.8,1.99H5.712A2.935,2.935,0,0,0,4.557-4.259a3.725,3.725,0,0,0-2.219-.636A3.41,3.41,0,0,0-.356-3.766,4.376,4.376,0,0,0-1.378-.833a4.184,4.184,0,0,0,.97,2.908A3.475,3.475,0,0,0,2.314,3.151a3.8,3.8,0,0,0,2.2-.637A2.889,2.889,0,0,0,5.712.681H7.278A4.523,4.523,0,0,1,6.469,2.7,4.734,4.734,0,0,1,4.742,4.145a5.5,5.5,0,0,1-2.51.546" transform="translate(3.049 6.407)" fill="#2b2e34"/>
      </g>
    </g>
    <path id="Path_18" data-name="Path 18" d="M114.307,3.528h1.673V-11.418h-1.673Z" transform="translate(83.685 36.337)" fill="#2b2e34"/>
    <g id="Group_20" data-name="Group 20" transform="translate(0 -61.052)" clip-path="url(#clip-path)">
      <g id="Group_18" data-name="Group 18" transform="translate(206.832 90.087)">
        <path id="Path_19" data-name="Path 19" d="M1.83,4.691A3.879,3.879,0,0,1-.614,3.946a4.426,4.426,0,0,1-1.42-1.99A8.149,8.149,0,0,1-2.5-.885,6.809,6.809,0,0,1-1.423-4.869,3.7,3.7,0,0,1,1.83-6.407,4.494,4.494,0,0,1,3.7-6.062a3.374,3.374,0,0,1,1.223.9,3.647,3.647,0,0,1,.676,1.2l.026-.14V-6.407H7.377V4.424H5.917L5.652,2.364,5.6,2.326A4.721,4.721,0,0,1,4.909,3.4,3.629,3.629,0,0,1,3.7,4.318a4.244,4.244,0,0,1-1.871.372m.662-1.516a2.642,2.642,0,0,0,2.376-1.1A5.231,5.231,0,0,0,5.6-.861a4.835,4.835,0,0,0-.757-2.958,2.76,2.76,0,0,0-2.35-1A2.81,2.81,0,0,0-.017-3.7,4.921,4.921,0,0,0-.772-.885,5.1,5.1,0,0,0,0,2.034,2.787,2.787,0,0,0,2.491,3.175" transform="translate(2.499 6.407)" fill="#2b2e34"/>
      </g>
      <g id="Group_19" data-name="Group 19" transform="translate(222.919 90.111)">
        <path id="Path_20" data-name="Path 20" d="M0,6.609V5.231H1.488a1.338,1.338,0,0,0,.875-.281,4.2,4.2,0,0,0,.85-1.341L4.356,1.141.107-9.028H1.888L5.2-.662,8.737-9.028h1.8L4.753,3.848a11.449,11.449,0,0,1-.942,1.793,1.98,1.98,0,0,1-.916.783,3.749,3.749,0,0,1-1.271.185Z" transform="translate(0 9.028)" fill="#2b2e34"/>
      </g>
    </g>
  </g>
</svg>
